<svg width="510" height="408" viewBox="0 0 510 408" fill="none" xmlns="http://www.w3.org/2000/svg">
<path fill-rule="evenodd" clip-rule="evenodd" d="M202.075 288V318H208.245C216.529 318 223.245 324.716 223.245 333C223.245 341.284 216.529 348 208.245 348H271.924C263.64 348 256.924 341.284 256.924 333C256.924 324.716 263.64 318 271.924 318H306.962V288H295.019C286.734 288 280.019 281.284 280.019 273C280.019 264.716 286.734 258 295.019 258H223.641C231.925 258 238.641 264.716 238.641 273C238.641 281.284 231.926 288 223.641 288H202.075Z" fill="#212121"/>
<path fill-rule="evenodd" clip-rule="evenodd" d="M190.528 363C190.528 354.716 197.244 348 205.528 348H301.585C309.869 348 316.585 354.716 316.585 363V363C316.585 371.284 309.869 378 301.585 378H205.528C197.244 378 190.528 371.284 190.528 363V363Z" fill="#212121"/>
<path fill-rule="evenodd" clip-rule="evenodd" d="M154.924 303C154.924 294.716 161.64 288 169.924 288H323.717C332.001 288 338.717 294.716 338.717 303V303C338.717 311.284 332.001 318 323.717 318H169.924C161.64 318 154.924 311.284 154.924 303V303Z" fill="#212121"/>
<path fill-rule="evenodd" clip-rule="evenodd" d="M189.566 243C189.566 234.716 196.282 228 204.566 228H300.623C308.907 228 315.623 234.716 315.623 243V243C315.623 251.284 308.907 258 300.623 258H204.566C196.282 258 189.566 251.284 189.566 243V243Z" fill="#212121"/>
<path fill-rule="evenodd" clip-rule="evenodd" d="M318.509 228V258H324.679C332.963 258 339.679 264.716 339.679 273C339.679 281.284 332.963 288 324.679 288H388.358C380.074 288 373.358 281.284 373.358 273C373.358 264.716 380.074 258 388.358 258H423.396V228H411.453C403.168 228 396.453 221.284 396.453 213C396.453 204.716 403.168 198 411.453 198H340.075C348.36 198 355.075 204.716 355.075 213C355.075 221.284 348.36 228 340.075 228H318.509Z" fill="#212121"/>
<path fill-rule="evenodd" clip-rule="evenodd" d="M287.717 303C287.717 294.716 294.433 288 302.717 288H398.773C407.058 288 413.773 294.716 413.773 303V303C413.773 311.284 407.058 318 398.773 318H302.717C294.433 318 287.717 311.284 287.717 303V303Z" fill="#212121"/>
<path fill-rule="evenodd" clip-rule="evenodd" d="M271.358 243C271.358 234.716 278.074 228 286.358 228H440.151C448.435 228 455.151 234.716 455.151 243V243C455.151 251.284 448.435 258 440.151 258H286.358C278.074 258 271.358 251.284 271.358 243V243Z" fill="#212121"/>
<path fill-rule="evenodd" clip-rule="evenodd" d="M306 183C306 174.716 312.716 168 321 168H417.057C425.341 168 432.057 174.716 432.057 183V183C432.057 191.284 425.341 198 417.057 198H321C312.716 198 306 191.284 306 183V183Z" fill="#212121"/>
<path fill-rule="evenodd" clip-rule="evenodd" d="M218.434 108V138H224.604C232.888 138 239.604 144.716 239.604 153C239.604 161.284 232.888 168 224.604 168H288.283C279.999 168 273.283 161.284 273.283 153C273.283 144.716 279.999 138 288.283 138H323.321V108H311.377C303.093 108 296.377 101.284 296.377 93C296.377 84.7157 303.093 78 311.377 78H240C248.284 78 255 84.7157 255 93C255 101.284 248.284 108 240 108H218.434Z" fill="#212121"/>
<path fill-rule="evenodd" clip-rule="evenodd" d="M206.887 183C206.887 174.716 213.603 168 221.887 168H317.944C326.228 168 332.944 174.716 332.944 183V183C332.944 191.284 326.228 198 317.944 198H221.887C213.603 198 206.887 191.284 206.887 183V183Z" fill="#212121"/>
<path fill-rule="evenodd" clip-rule="evenodd" d="M171.283 123C171.283 114.716 177.999 108 186.283 108H340.076C348.36 108 355.076 114.716 355.076 123V123C355.076 131.284 348.36 138 340.076 138H186.283C177.999 138 171.283 131.284 171.283 123V123Z" fill="#212121"/>
<path fill-rule="evenodd" clip-rule="evenodd" d="M205.925 63C205.925 54.7157 212.641 48 220.925 48H290.038C298.322 48 305.038 54.7157 305.038 63V63C305.038 71.2843 298.322 78 290.038 78H220.925C212.641 78 205.925 71.2843 205.925 63V63Z" fill="#212121"/>
<path fill-rule="evenodd" clip-rule="evenodd" d="M122.208 168V198H128.377C136.662 198 143.377 204.716 143.377 213C143.377 221.284 136.662 228 128.377 228H192.057C183.772 228 177.057 221.284 177.057 213C177.057 204.716 183.772 198 192.057 198H227.094V168H215.151C206.867 168 200.151 161.284 200.151 153C200.151 144.716 206.867 138 215.151 138H143.774C152.058 138 158.774 144.716 158.774 153C158.774 161.284 152.058 168 143.774 168H122.208Z" fill="#212121"/>
<path fill-rule="evenodd" clip-rule="evenodd" d="M110.661 243C110.661 234.716 117.376 228 125.661 228H221.717C230.002 228 236.717 234.716 236.717 243V243C236.717 251.284 230.002 258 221.717 258H125.661C117.376 258 110.661 251.284 110.661 243V243Z" fill="#212121"/>
<path fill-rule="evenodd" clip-rule="evenodd" d="M75.0566 183C75.0566 174.716 81.7724 168 90.0566 168H243.849C252.133 168 258.849 174.716 258.849 183V183C258.849 191.284 252.133 198 243.849 198H90.0566C81.7724 198 75.0566 191.284 75.0566 183V183Z" fill="#212121"/>
<path fill-rule="evenodd" clip-rule="evenodd" d="M109.698 123C109.698 114.716 116.414 108 124.698 108H220.755C229.039 108 235.755 114.716 235.755 123V123C235.755 131.284 229.039 138 220.755 138H124.698C116.414 138 109.698 131.284 109.698 123V123Z" fill="#212121"/>
<path fill-rule="evenodd" clip-rule="evenodd" d="M405.113 156.016C397.545 158.601 389.458 160 381.057 160C338.541 160 304.076 124.183 304.076 80C304.076 35.8172 338.541 0 381.057 0C389.458 0 397.545 1.39853 405.113 3.98379C374.379 14.4817 352.189 44.5478 352.189 80C352.189 115.452 374.379 145.518 405.113 156.016Z" fill="#FFC355"/>
<mask id="mask0_4_4" style="mask-type:alpha" maskUnits="userSpaceOnUse" x="304" y="0" width="102" height="160">
<path fill-rule="evenodd" clip-rule="evenodd" d="M405.113 156.016C397.545 158.601 389.458 160 381.057 160C338.541 160 304.076 124.183 304.076 80C304.076 35.8172 338.541 0 381.057 0C389.458 0 397.545 1.39853 405.113 3.98379C374.379 14.4817 352.189 44.5478 352.189 80C352.189 115.452 374.379 145.518 405.113 156.016Z" fill="white"/>
</mask>
<g mask="url(#mask0_4_4)">
<path fill-rule="evenodd" clip-rule="evenodd" d="M235.755 138H517.698V153H235.755V138Z" fill="#F5BA4D"/>
<path fill-rule="evenodd" clip-rule="evenodd" d="M235.755 108H517.698V123H235.755V108Z" fill="#F5BA4D"/>
<path fill-rule="evenodd" clip-rule="evenodd" d="M235.755 78H517.698V93H235.755V78Z" fill="#F5BA4D"/>
<path fill-rule="evenodd" clip-rule="evenodd" d="M235.755 48H517.698V63H235.755V48Z" fill="#F5BA4D"/>
<path fill-rule="evenodd" clip-rule="evenodd" d="M235.755 18H517.698V33H235.755V18Z" fill="#F5BA4D"/>
<path fill-rule="evenodd" clip-rule="evenodd" d="M235.755 -12H517.698V3H235.755V-12Z" fill="#F5BA4D"/>
</g>
<path fill-rule="evenodd" clip-rule="evenodd" d="M375.849 138H184.189C192.473 138 199.189 131.284 199.189 123C199.189 114.716 192.473 108 184.189 108H375.849C367.565 108 360.849 114.716 360.849 123C360.849 131.284 367.565 138 375.849 138ZM118.84 168C127.085 168.046 133.755 174.744 133.755 183C133.755 191.256 127.085 197.954 118.84 198L118.925 198H414.34C406.055 198 399.34 191.284 399.34 183C399.34 174.716 406.055 168 414.34 168H118.925L118.84 168ZM143.377 243C143.377 234.716 136.662 228 128.377 228H423.962C415.678 228 408.962 234.716 408.962 243C408.962 251.284 415.678 258 423.962 258H128.377C136.662 258 143.377 251.284 143.377 243ZM368.151 318H186.113C194.398 318 201.113 311.284 201.113 303C201.113 294.716 194.398 288 186.113 288H368.151C359.867 288 353.151 294.716 353.151 303C353.151 311.284 359.867 318 368.151 318Z" fill="#3D4141"/>
<path fill-rule="evenodd" clip-rule="evenodd" d="M330.623 78H227.491C235.775 78 242.491 71.2843 242.491 63C242.491 54.7157 235.775 48 227.491 48H330.623C322.339 48 315.623 54.7157 315.623 63C315.623 71.2843 322.338 78 330.623 78Z" fill="#3D4141"/>
<path fill-rule="evenodd" clip-rule="evenodd" d="M339.283 378H207.283C215.567 378 222.283 371.284 222.283 363C222.283 354.716 215.567 348 207.283 348H339.283C330.999 348 324.283 354.716 324.283 363C324.283 371.284 330.999 378 339.283 378Z" fill="#3D4141"/>
<path fill-rule="evenodd" clip-rule="evenodd" d="M60.6226 92.434C60.6226 84.4623 67.0849 78 75.0565 78V78C83.0282 78 89.4905 84.4623 89.4905 92.434V93.566C89.4905 101.538 83.0282 108 75.0565 108V108C67.0849 108 60.6226 101.538 60.6226 93.566V92.434Z" fill="#3D4141"/>
<path fill-rule="evenodd" clip-rule="evenodd" d="M459.962 152.434C459.962 144.462 466.425 138 474.396 138V138C482.368 138 488.83 144.462 488.83 152.434V153.566C488.83 161.538 482.368 168 474.396 168V168C466.425 168 459.962 161.538 459.962 153.566V152.434Z" fill="#3D4141"/>
<path fill-rule="evenodd" clip-rule="evenodd" d="M19.2451 273C19.2451 264.716 25.9608 258 34.2451 258H50.4338C58.7181 258 65.4338 264.716 65.4338 273V273C65.4338 281.284 58.7181 288 50.4338 288H34.2451C25.9608 288 19.2451 281.284 19.2451 273V273Z" fill="#3D4141"/>
<path fill-rule="evenodd" clip-rule="evenodd" d="M428.208 333C428.208 324.716 434.923 318 443.208 318H459.396C467.68 318 474.396 324.716 474.396 333V333C474.396 341.284 467.68 348 459.396 348H443.208C434.923 348 428.208 341.284 428.208 333V333Z" fill="#3D4141"/>
<path fill-rule="evenodd" clip-rule="evenodd" d="M70.2451 333C70.2451 324.716 76.9608 318 85.2451 318H403.585C411.869 318 418.585 324.716 418.585 333V333C418.585 341.284 411.869 348 403.585 348H85.2451C76.9608 348 70.2451 341.284 70.2451 333V333Z" fill="#3D4141"/>
<path fill-rule="evenodd" clip-rule="evenodd" d="M153.962 393C153.962 384.716 160.678 378 168.962 378H373.755C382.039 378 388.755 384.716 388.755 393V393C388.755 401.284 382.039 408 373.755 408H168.962C160.678 408 153.962 401.284 153.962 393V393Z" fill="#3D4141"/>
<path fill-rule="evenodd" clip-rule="evenodd" d="M75.0566 273C75.0566 264.716 81.7724 258 90.0566 258H466.132C474.416 258 481.132 264.716 481.132 273V273C481.132 281.284 474.416 288 466.132 288H90.0566C81.7724 288 75.0566 281.284 75.0566 273V273Z" fill="#3D4141"/>
<path fill-rule="evenodd" clip-rule="evenodd" d="M0 213C0 204.716 6.71573 198 15 198H495C503.284 198 510 204.716 510 213V213C510 221.284 503.284 228 495 228H15C6.71574 228 0 221.284 0 213V213Z" fill="#3D4141"/>
<path fill-rule="evenodd" clip-rule="evenodd" d="M99.1133 93C99.1133 84.7157 105.829 78 114.113 78H413.208C421.492 78 428.208 84.7157 428.208 93V93C428.208 101.284 421.492 108 413.208 108H114.113C105.829 108 99.1133 101.284 99.1133 93V93Z" fill="#3D4141"/>
<path fill-rule="evenodd" clip-rule="evenodd" d="M192.453 33C192.453 24.7157 199.168 18 207.453 18H358.358C366.643 18 373.358 24.7157 373.358 33V33C373.358 41.2843 366.643 48 358.358 48H207.453C199.168 48 192.453 41.2843 192.453 33V33Z" fill="#3D4141"/>
<path fill-rule="evenodd" clip-rule="evenodd" d="M40.415 153C40.415 144.716 47.1308 138 55.415 138H435.34C443.624 138 450.34 144.716 450.34 153V153C450.34 161.284 443.624 168 435.34 168H55.415C47.1308 168 40.415 161.284 40.415 153V153Z" fill="#3D4141"/>
<path fill-rule="evenodd" clip-rule="evenodd" d="M264.623 273C312.453 273 351.227 232.706 351.227 183C351.227 133.294 312.453 93 264.623 93C216.793 93 178.019 133.294 178.019 183C178.019 232.706 216.793 273 264.623 273Z" fill="#D1DDE6"/>
<mask id="mask1_4_4" style="mask-type:alpha" maskUnits="userSpaceOnUse" x="178" y="93" width="174" height="180">
<path fill-rule="evenodd" clip-rule="evenodd" d="M264.623 273C312.453 273 351.227 232.706 351.227 183C351.227 133.294 312.453 93 264.623 93C216.793 93 178.019 133.294 178.019 183C178.019 232.706 216.793 273 264.623 273Z" fill="white"/>
</mask>
<g mask="url(#mask1_4_4)">
<path fill-rule="evenodd" clip-rule="evenodd" d="M188.604 135C187.541 135 186.679 135.862 186.679 136.925V141H182.906C181.801 141 180.906 141.895 180.906 143C180.906 144.105 181.801 145 182.906 145H186.679V149.075C186.679 150.138 187.541 151 188.604 151C189.667 151 190.528 150.138 190.528 149.075V145H194.302C195.407 145 196.302 144.105 196.302 143C196.302 141.895 195.407 141 194.302 141H190.528V136.925C190.528 135.862 189.667 135 188.604 135Z" fill="#A4BDCF"/>
<path fill-rule="evenodd" clip-rule="evenodd" d="M230.944 114C229.881 114 229.019 114.862 229.019 115.925V120H225.246C224.141 120 223.246 120.895 223.246 122C223.246 123.105 224.141 124 225.246 124H229.019V128.075C229.019 129.138 229.881 130 230.944 130C232.007 130 232.868 129.138 232.868 128.075V124H236.642C237.746 124 238.642 123.105 238.642 122C238.642 120.895 237.746 120 236.642 120H232.868V115.925C232.868 114.862 232.007 114 230.944 114Z" fill="#A4BDCF"/>
<path fill-rule="evenodd" clip-rule="evenodd" d="M266.547 143C265.484 143 264.623 143.862 264.623 144.925V149H260.849C259.745 149 258.849 149.895 258.849 151C258.849 152.105 259.745 153 260.849 153H264.623V157.075C264.623 158.138 265.484 159 266.547 159C267.61 159 268.472 158.138 268.472 157.075V153H272.245C273.35 153 274.245 152.105 274.245 151C274.245 149.895 273.35 149 272.245 149H268.472V144.925C268.472 143.862 267.61 143 266.547 143Z" fill="#A4BDCF"/>
<path fill-rule="evenodd" clip-rule="evenodd" d="M276.17 98C275.107 98 274.245 98.8616 274.245 99.9245V104H270.472C269.367 104 268.472 104.895 268.472 106C268.472 107.105 269.367 108 270.472 108H274.245V112.075C274.245 113.138 275.107 114 276.17 114C277.233 114 278.094 113.138 278.094 112.075V108H281.868C282.972 108 283.868 107.105 283.868 106C283.868 104.895 282.972 104 281.868 104H278.094V99.9245C278.094 98.8616 277.233 98 276.17 98Z" fill="#A4BDCF"/>
<path fill-rule="evenodd" clip-rule="evenodd" d="M315.623 119C314.56 119 313.698 119.862 313.698 120.925V125H309.925C308.82 125 307.925 125.895 307.925 127C307.925 128.105 308.82 129 309.925 129H313.698V133.075C313.698 134.138 314.56 135 315.623 135C316.686 135 317.547 134.138 317.547 133.075V129H321.321C322.426 129 323.321 128.105 323.321 127C323.321 125.895 322.426 125 321.321 125H317.547V120.925C317.547 119.862 316.686 119 315.623 119Z" fill="#A4BDCF"/>
<path fill-rule="evenodd" clip-rule="evenodd" d="M344.491 198C343.428 198 342.566 198.862 342.566 199.925V204H338.792C337.688 204 336.792 204.895 336.792 206C336.792 207.105 337.688 208 338.792 208H342.566V212.075C342.566 213.138 343.428 214 344.491 214C345.553 214 346.415 213.138 346.415 212.075V208H350.189C351.293 208 352.189 207.105 352.189 206C352.189 204.895 351.293 204 350.189 204H346.415V199.925C346.415 198.862 345.553 198 344.491 198Z" fill="#A4BDCF"/>
<path fill-rule="evenodd" clip-rule="evenodd" d="M321.396 236C320.333 236 319.472 236.862 319.472 237.925V242H315.698C314.594 242 313.698 242.895 313.698 244C313.698 245.105 314.594 246 315.698 246H319.472V250.075C319.472 251.138 320.333 252 321.396 252C322.459 252 323.321 251.138 323.321 250.075V246H327.094C328.199 246 329.094 245.105 329.094 244C329.094 242.895 328.199 242 327.094 242H323.321V237.925C323.321 236.862 322.459 236 321.396 236Z" fill="#A4BDCF"/>
<path fill-rule="evenodd" clip-rule="evenodd" d="M224.208 212C223.145 212 222.283 212.862 222.283 213.925V218H218.51C217.405 218 216.51 218.895 216.51 220C216.51 221.105 217.405 222 218.51 222H222.283V226.075C222.283 227.138 223.145 228 224.208 228C225.271 228 226.132 227.138 226.132 226.075V222H229.906C231.011 222 231.906 221.105 231.906 220C231.906 218.895 231.011 218 229.906 218H226.132V213.925C226.132 212.862 225.271 212 224.208 212Z" fill="#A4BDCF"/>
<path fill-rule="evenodd" clip-rule="evenodd" d="M183.793 198C182.73 198 181.868 198.862 181.868 199.925V204H178.095C176.99 204 176.095 204.895 176.095 206C176.095 207.105 176.99 208 178.095 208H181.868V212.075C181.868 213.138 182.73 214 183.793 214C184.856 214 185.717 213.138 185.717 212.075V208H189.491C190.596 208 191.491 207.105 191.491 206C191.491 204.895 190.596 204 189.491 204H185.717V199.925C185.717 198.862 184.856 198 183.793 198Z" fill="#A4BDCF"/>
<path fill-rule="evenodd" clip-rule="evenodd" d="M293.491 206C292.428 206 291.566 206.862 291.566 207.925V212H287.792C286.688 212 285.792 212.895 285.792 214C285.792 215.105 286.688 216 287.792 216H291.566V220.075C291.566 221.138 292.428 222 293.491 222C294.553 222 295.415 221.138 295.415 220.075V216H299.189C300.293 216 301.189 215.105 301.189 214C301.189 212.895 300.293 212 299.189 212H295.415V207.925C295.415 206.862 294.553 206 293.491 206Z" fill="#A4BDCF"/>
</g>
<path fill-rule="evenodd" clip-rule="evenodd" d="M258.849 301.774C258.849 298.585 261.434 296 264.623 296V296C267.811 296 270.396 298.585 270.396 301.774V350.226C270.396 353.415 267.811 356 264.623 356V356C261.434 356 258.849 353.415 258.849 350.226V301.774Z" fill="#D1DDE6"/>
<path fill-rule="evenodd" clip-rule="evenodd" d="M281.943 285.774C281.943 282.585 284.528 280 287.717 280V280C290.906 280 293.491 282.585 293.491 285.774V334.226C293.491 337.415 290.906 340 287.717 340V340C284.528 340 281.943 337.415 281.943 334.226V285.774Z" fill="#D1DDE6"/>
<path fill-rule="evenodd" clip-rule="evenodd" d="M215.547 249C215.547 229.118 231.665 213 251.547 213H277.698C297.581 213 313.698 229.118 313.698 249V294C313.698 303.48 310.034 312.105 304.044 318.534C303.005 317.005 301.252 316 299.264 316C296.076 316 293.491 318.585 293.491 321.774V326.36C289.932 328.1 286.043 329.271 281.944 329.752V317.774C281.944 314.585 279.359 312 276.17 312C272.981 312 270.396 314.585 270.396 317.774V330H258.849V317.774C258.849 314.585 256.264 312 253.076 312C249.887 312 247.302 314.585 247.302 317.774V329.752C243.203 329.271 239.314 328.1 235.755 326.36V321.774C235.755 318.585 233.17 316 229.981 316C227.993 316 226.24 317.005 225.202 318.534C219.212 312.105 215.547 303.48 215.547 294V249Z" fill="#D1DDE6"/>
<mask id="mask2_4_4" style="mask-type:alpha" maskUnits="userSpaceOnUse" x="215" y="213" width="99" height="117">
<path fill-rule="evenodd" clip-rule="evenodd" d="M215.547 249C215.547 229.118 231.665 213 251.547 213H277.698C297.581 213 313.698 229.118 313.698 249V294C313.698 303.48 310.034 312.105 304.044 318.534C303.005 317.005 301.252 316 299.264 316C296.076 316 293.491 318.585 293.491 321.774V326.36C289.932 328.1 286.043 329.271 281.944 329.752V317.774C281.944 314.585 279.359 312 276.17 312C272.981 312 270.396 314.585 270.396 317.774V330H258.849V317.774C258.849 314.585 256.264 312 253.076 312C249.887 312 247.302 314.585 247.302 317.774V329.752C243.203 329.271 239.314 328.1 235.755 326.36V321.774C235.755 318.585 233.17 316 229.981 316C227.993 316 226.24 317.005 225.202 318.534C219.212 312.105 215.547 303.48 215.547 294V249Z" fill="white"/>
</mask>
<g mask="url(#mask2_4_4)">
<path fill-rule="evenodd" clip-rule="evenodd" d="M233.83 288C232.768 288 231.906 288.862 231.906 289.925V294H228.132C227.028 294 226.132 294.895 226.132 296C226.132 297.105 227.028 298 228.132 298H231.906V302.075C231.906 303.138 232.768 304 233.83 304C234.893 304 235.755 303.138 235.755 302.075V298H239.529C240.633 298 241.529 297.105 241.529 296C241.529 294.895 240.633 294 239.529 294H235.755V289.925C235.755 288.862 234.893 288 233.83 288Z" fill="#A4BDCF"/>
<path fill-rule="evenodd" clip-rule="evenodd" d="M218.434 255C217.371 255 216.509 255.862 216.509 256.925V261H212.736C211.631 261 210.736 261.895 210.736 263C210.736 264.105 211.631 265 212.736 265H216.509V269.075C216.509 270.138 217.371 271 218.434 271C219.497 271 220.358 270.138 220.358 269.075V265H224.132C225.237 265 226.132 264.105 226.132 263C226.132 261.895 225.237 261 224.132 261H220.358V256.925C220.358 255.862 219.497 255 218.434 255Z" fill="#A4BDCF"/>
<path fill-rule="evenodd" clip-rule="evenodd" d="M247.302 249C246.239 249 245.378 249.862 245.378 250.925V255H241.604C240.499 255 239.604 255.895 239.604 257C239.604 258.105 240.499 259 241.604 259H245.378V263.075C245.378 264.138 246.239 265 247.302 265C248.365 265 249.227 264.138 249.227 263.075V259H253C254.105 259 255 258.105 255 257C255 255.895 254.105 255 253 255H249.227V250.925C249.227 249.862 248.365 249 247.302 249Z" fill="#A4BDCF"/>
<path fill-rule="evenodd" clip-rule="evenodd" d="M267.51 280C266.447 280 265.585 280.862 265.585 281.925V286H261.812C260.707 286 259.812 286.895 259.812 288C259.812 289.105 260.707 290 261.812 290H265.585V294.075C265.585 295.138 266.447 296 267.51 296C268.573 296 269.434 295.138 269.434 294.075V290H273.208C274.312 290 275.208 289.105 275.208 288C275.208 286.895 274.312 286 273.208 286H269.434V281.925C269.434 280.862 268.573 280 267.51 280Z" fill="#A4BDCF"/>
<path fill-rule="evenodd" clip-rule="evenodd" d="M314.661 288C313.598 288 312.736 288.862 312.736 289.925V294H308.962C307.858 294 306.962 294.895 306.962 296C306.962 297.105 307.858 298 308.962 298H312.736V302.075C312.736 303.138 313.598 304 314.661 304C315.723 304 316.585 303.138 316.585 302.075V298H320.359C321.463 298 322.359 297.105 322.359 296C322.359 294.895 321.463 294 320.359 294H316.585V289.925C316.585 288.862 315.723 288 314.661 288Z" fill="#A4BDCF"/>
<path fill-rule="evenodd" clip-rule="evenodd" d="M292.529 264C291.466 264 290.604 264.862 290.604 265.925V270H286.831C285.726 270 284.831 270.895 284.831 272C284.831 273.105 285.726 274 286.831 274H290.604V278.075C290.604 279.138 291.466 280 292.529 280C293.592 280 294.453 279.138 294.453 278.075V274H298.227C299.331 274 300.227 273.105 300.227 272C300.227 270.895 299.331 270 298.227 270H294.453V265.925C294.453 264.862 293.592 264 292.529 264Z" fill="#A4BDCF"/>
</g>
<path fill-rule="evenodd" clip-rule="evenodd" d="M280.019 253.925C280.019 252.862 280.881 252 281.944 252V252C283.006 252 283.868 252.862 283.868 253.925V268.075C283.868 269.138 283.006 270 281.944 270V270C280.881 270 280.019 269.138 280.019 268.075V253.925Z" fill="#3D4141"/>
<path fill-rule="evenodd" clip-rule="evenodd" d="M272.321 249.925C272.321 248.862 273.182 248 274.245 248V248C275.308 248 276.17 248.862 276.17 249.925V264.075C276.17 265.138 275.308 266 274.245 266V266C273.182 266 272.321 265.138 272.321 264.075V249.925Z" fill="#3D4141"/>
<path fill-rule="evenodd" clip-rule="evenodd" d="M278.984 231.974C273.057 220.293 256.373 220.293 250.447 231.974L248.601 235.612C244.486 243.721 247.995 252.963 255.178 256.905C255.989 252.964 259.479 250 263.66 250C268.158 250 271.856 253.429 272.28 257.816C280.761 254.594 285.305 244.433 280.83 235.612L278.984 231.974Z" fill="#3D4141"/>
<path fill-rule="evenodd" clip-rule="evenodd" d="M304.076 220C321.613 220 335.83 203.435 335.83 183C335.83 162.565 321.613 146 304.076 146C286.538 146 272.321 162.565 272.321 183C272.321 203.435 286.538 220 304.076 220Z" fill="#A4BDCF"/>
<path fill-rule="evenodd" clip-rule="evenodd" d="M313.698 207.925C313.698 206.862 314.56 206 315.623 206V206C316.686 206 317.547 206.862 317.547 207.925V222.075C317.547 223.138 316.686 224 315.623 224V224C314.56 224 313.698 223.138 313.698 222.075V207.925Z" fill="#3D4141"/>
<path fill-rule="evenodd" clip-rule="evenodd" d="M306 203.925C306 202.862 306.862 202 307.925 202V202C308.987 202 309.849 202.862 309.849 203.925V218.075C309.849 219.138 308.987 220 307.925 220V220C306.862 220 306 219.138 306 218.075V203.925Z" fill="#3D4141"/>
<path fill-rule="evenodd" clip-rule="evenodd" d="M304.076 216C319.487 216 331.981 201.225 331.981 183C331.981 164.775 319.487 150 304.076 150C288.664 150 276.17 164.775 276.17 183C276.17 201.225 288.664 216 304.076 216Z" fill="#3D4141"/>
<mask id="mask3_4_4" style="mask-type:alpha" maskUnits="userSpaceOnUse" x="276" y="150" width="56" height="66">
<path fill-rule="evenodd" clip-rule="evenodd" d="M304.076 216C319.487 216 331.981 201.225 331.981 183C331.981 164.775 319.487 150 304.076 150C288.664 150 276.17 164.775 276.17 183C276.17 201.225 288.664 216 304.076 216Z" fill="white"/>
</mask>
<g mask="url(#mask3_4_4)">
<path fill-rule="evenodd" clip-rule="evenodd" d="M304.076 186C314.173 186 322.359 177.493 322.359 167C322.359 156.507 314.173 148 304.076 148C293.978 148 285.792 156.507 285.792 167C285.792 177.493 293.978 186 304.076 186Z" fill="#2B2F2F"/>
</g>
<path fill-rule="evenodd" clip-rule="evenodd" d="M225.17 220C242.707 220 256.924 203.435 256.924 183C256.924 162.565 242.707 146 225.17 146C207.632 146 193.415 162.565 193.415 183C193.415 203.435 207.632 220 225.17 220Z" fill="#A4BDCF"/>
<path fill-rule="evenodd" clip-rule="evenodd" d="M215.547 210.925C215.547 209.862 216.409 209 217.471 209V209C218.534 209 219.396 209.862 219.396 210.925V225.075C219.396 226.138 218.534 227 217.471 227V227C216.409 227 215.547 226.138 215.547 225.075V210.925Z" fill="#3D4141"/>
<path fill-rule="evenodd" clip-rule="evenodd" d="M223.245 202.925C223.245 201.862 224.107 201 225.17 201V201C226.233 201 227.094 201.862 227.094 202.925V217.075C227.094 218.138 226.233 219 225.17 219V219C224.107 219 223.245 218.138 223.245 217.075V202.925Z" fill="#3D4141"/>
<path fill-rule="evenodd" clip-rule="evenodd" d="M207.849 203.925C207.849 202.862 208.711 202 209.774 202V202C210.837 202 211.698 202.862 211.698 203.925V218.075C211.698 219.138 210.837 220 209.774 220V220C208.711 220 207.849 219.138 207.849 218.075V203.925Z" fill="#3D4141"/>
<path fill-rule="evenodd" clip-rule="evenodd" d="M225.17 216C240.582 216 253.075 201.225 253.075 183C253.075 164.775 240.582 150 225.17 150C209.758 150 197.264 164.775 197.264 183C197.264 201.225 209.758 216 225.17 216Z" fill="#3D4141"/>
<mask id="mask4_4_4" style="mask-type:alpha" maskUnits="userSpaceOnUse" x="197" y="150" width="57" height="66">
<path fill-rule="evenodd" clip-rule="evenodd" d="M225.17 216C240.582 216 253.075 201.225 253.075 183C253.075 164.775 240.582 150 225.17 150C209.758 150 197.264 164.775 197.264 183C197.264 201.225 209.758 216 225.17 216Z" fill="white"/>
</mask>
<g mask="url(#mask4_4_4)">
<path fill-rule="evenodd" clip-rule="evenodd" d="M225.17 186C235.267 186 243.453 177.493 243.453 167C243.453 156.507 235.267 148 225.17 148C215.072 148 206.887 156.507 206.887 167C206.887 177.493 215.072 186 225.17 186Z" fill="#2B2F2F"/>
</g>
<path fill-rule="evenodd" clip-rule="evenodd" d="M225.17 197C231.548 197 236.717 191.627 236.717 185C236.717 178.373 231.548 173 225.17 173C218.793 173 213.623 178.373 213.623 185C213.623 191.627 218.793 197 225.17 197Z" fill="#8BC34A"/>
<path fill-rule="evenodd" clip-rule="evenodd" d="M304.075 187C310.453 187 315.623 181.627 315.623 175C315.623 168.373 310.453 163 304.075 163C297.698 163 292.528 168.373 292.528 175C292.528 181.627 297.698 187 304.075 187Z" fill="#F655C5"/>
<path fill-rule="evenodd" clip-rule="evenodd" d="M223.245 192C225.903 192 228.057 189.761 228.057 187C228.057 184.239 225.903 182 223.245 182C220.588 182 218.434 184.239 218.434 187C218.434 189.761 220.588 192 223.245 192Z" fill="#3D4141"/>
<path fill-rule="evenodd" clip-rule="evenodd" d="M306 178C308.658 178 310.812 175.761 310.812 173C310.812 170.239 308.658 168 306 168C303.343 168 301.189 170.239 301.189 173C301.189 175.761 303.343 178 306 178Z" fill="#3D4141"/>
</svg>
