<svg width="253" height="260" viewBox="0 0 253 260" fill="none" xmlns="http://www.w3.org/2000/svg">
<path d="M250.5 230.5C250.5 223.9 245.2 218.6 238.6 218.6H14.9C8.30002 218.6 3 223.9 3 230.5V256.6H250.5" fill="#B7B6C2"/>
<path d="M250.5 230.5C250.5 223.9 245.2 218.6 238.6 218.6H14.9C8.30002 218.6 3 223.9 3 230.5V256.6H250.5" stroke="#0B0033" stroke-width="5" stroke-miterlimit="10"/>
<path d="M43.5 133.6C55.4846 133.6 65.2001 123.885 65.2001 111.9C65.2001 99.9154 55.4846 90.2 43.5 90.2C31.5154 90.2 21.8 99.9154 21.8 111.9C21.8 123.885 31.5154 133.6 43.5 133.6Z" fill="#ED254E" stroke="#0B0033" stroke-width="5" stroke-miterlimit="10"/>
<path d="M210 133.6C221.985 133.6 231.7 123.885 231.7 111.9C231.7 99.9154 221.985 90.2 210 90.2C198.015 90.2 188.3 99.9154 188.3 111.9C188.3 123.885 198.015 133.6 210 133.6Z" fill="#ED254E" stroke="#0B0033" stroke-width="5" stroke-miterlimit="10"/>
<path d="M139.1 232.6H114.4C107.8 232.6 102.4 227.2 102.4 220.6V186.6C102.4 180 107.8 174.6 114.4 174.6H139.1C145.7 174.6 151.1 180 151.1 186.6V220.6C151.1 227.3 145.8 232.6 139.1 232.6Z" fill="#E7E7F0" stroke="#0B0033" stroke-width="5" stroke-miterlimit="10"/>
<path d="M210 180.5C210 187.1 204.7 192.4 198.1 192.4H55.4C48.8 192.4 43.5 187.1 43.5 180.5V86.2C43.5 40.2 80.8001 3 126.7 3C172.7 3 209.9 40.3 209.9 86.2V157.3" fill="#B7B6C2"/>
<path d="M210 180.5C210 187.1 204.7 192.4 198.1 192.4H55.4C48.8 192.4 43.5 187.1 43.5 180.5V86.2C43.5 40.2 80.8001 3 126.7 3C172.7 3 209.9 40.3 209.9 86.2V157.3" stroke="#0B0033" stroke-width="5" stroke-miterlimit="10"/>
<path d="M171.4 159.9C142.3 173.5 108.6 173.5 79.4999 159.9C73.2999 157 70.6999 150.6 73.2999 146.6C74.4999 144.6 75.7999 142.5 76.9999 140.5C79.5999 136.4 85.2999 135.3 89.9999 137.4C112.5 147.9 138.4 147.9 160.9 137.4C165.5 135.3 171.2 136.3 173.9 140.5C175.1 142.5 176.4 144.6 177.6 146.6C180.3 150.6 177.6 157 171.4 159.9Z" fill="#F5F5FA"/>
<path d="M171.4 159.9C142.3 173.5 108.6 173.5 79.4999 159.9C73.2999 157 70.6999 150.6 73.2999 146.6C74.4999 144.6 75.7999 142.5 76.9999 140.5C79.5999 136.4 85.2999 135.3 89.9999 137.4C112.5 147.9 138.4 147.9 160.9 137.4C165.5 135.3 171.2 136.3 173.9 140.5C175.1 142.5 176.4 144.6 177.6 146.6C180.3 150.6 177.6 157 171.4 159.9Z" stroke="#0B0033" stroke-width="5" stroke-miterlimit="10"/>
<path d="M100.7 107.3C109.923 107.3 117.4 99.8231 117.4 90.5999C117.4 81.3768 109.923 73.8999 100.7 73.8999C91.4769 73.8999 84 81.3768 84 90.5999C84 99.8231 91.4769 107.3 100.7 107.3Z" fill="#FFDA00" stroke="#0B0033" stroke-width="5" stroke-miterlimit="10"/>
<path d="M150.3 107.3C159.523 107.3 167 99.8231 167 90.5999C167 81.3768 159.523 73.8999 150.3 73.8999C141.077 73.8999 133.6 81.3768 133.6 90.5999C133.6 99.8231 141.077 107.3 150.3 107.3Z" fill="#FFDA00" stroke="#0B0033" stroke-width="5" stroke-miterlimit="10"/>
<path d="M205.9 61H44.8999C38.5999 61 33.3999 55.9 33.3999 49.5C33.3999 43.2 38.4999 38 44.8999 38H205.9C212.2 38 217.4 43.1 217.4 49.5C217.4 55.9 212.2 61 205.9 61Z" fill="#FFDA00" stroke="#0B0033" stroke-width="5" stroke-miterlimit="10"/>
<path d="M77.3 143.8C106.9 161.9 144.1 161.9 173.6 143.8" stroke="#0B0033" stroke-width="5" stroke-miterlimit="10"/>
<path d="M117.2 129.5H136.3" stroke="#5DB3FA" stroke-width="5" stroke-miterlimit="10"/>
</svg>
