<svg width="231" height="223" viewBox="0 0 231 223" fill="none" xmlns="http://www.w3.org/2000/svg">
<circle cx="105.409" cy="117.408" r="100" transform="rotate(-33.1521 105.409 117.408)" fill="#FFDA00"/>
<path d="M71.6973 20.4125L50.3481 34.3576C4.10966 64.56 -8.89009 126.528 21.3124 172.766C51.5148 219.005 113.482 232.004 159.721 201.802L181.07 187.857" stroke="#0B0033" stroke-width="5"/>
<circle cx="125.965" cy="104.408" r="100" transform="rotate(-33.1521 125.965 104.408)" fill="#B7B6C2" stroke="#0B0033" stroke-width="5"/>
<path d="M130 127.944C115.321 127.944 102.866 137.441 98.432 150.618C96.8538 155.309 93.2229 158.744 89.2 158.744H88C81.4165 158.744 76.7568 153.478 78.1507 148.003C84.0427 124.859 105.026 107.744 130 107.744C154.974 107.744 175.957 124.859 181.849 148.003C183.243 153.478 178.583 158.744 172 158.744H170.8C166.777 158.744 163.146 155.309 161.568 150.618C157.134 137.441 144.679 127.944 130 127.944Z" fill="#5DB3FA" stroke="#0B0033" stroke-width="5"/>
<circle cx="99.5" cy="72.7441" r="17" fill="#F5F5FA" stroke="#0B0033" stroke-width="5"/>
<circle cx="153.5" cy="72.7441" r="17" fill="#F5F5FA" stroke="#0B0033" stroke-width="5"/>
</svg>
