<svg width="530" height="408" viewBox="0 0 530 408" fill="none" xmlns="http://www.w3.org/2000/svg">
<path fill-rule="evenodd" clip-rule="evenodd" d="M396 160C440.183 160 476 124.183 476 80C476 35.8172 440.183 0 396 0C351.817 0 316 35.8172 316 80C316 124.183 351.817 160 396 160Z" fill="#FFC355"/>
<mask id="mask0_4_7" style="mask-type:alpha" maskUnits="userSpaceOnUse" x="316" y="0" width="160" height="160">
<path fill-rule="evenodd" clip-rule="evenodd" d="M396 160C440.183 160 476 124.183 476 80C476 35.8172 440.183 0 396 0C351.817 0 316 35.8172 316 80C316 124.183 351.817 160 396 160Z" fill="white"/>
</mask>
<g mask="url(#mask0_4_7)">
<path fill-rule="evenodd" clip-rule="evenodd" d="M245 138H538V153H245V138Z" fill="#F5BA4D"/>
<path fill-rule="evenodd" clip-rule="evenodd" d="M245 108H538V123H245V108Z" fill="#F5BA4D"/>
<path fill-rule="evenodd" clip-rule="evenodd" d="M245 78H538V93H245V78Z" fill="#F5BA4D"/>
<path fill-rule="evenodd" clip-rule="evenodd" d="M245 48H538V63H245V48Z" fill="#F5BA4D"/>
<path fill-rule="evenodd" clip-rule="evenodd" d="M245 18H538V33H245V18Z" fill="#F5BA4D"/>
<path fill-rule="evenodd" clip-rule="evenodd" d="M245 -12H538V3H245V-12Z" fill="#F5BA4D"/>
</g>
<path fill-rule="evenodd" clip-rule="evenodd" d="M210 278V308H217C225.284 308 232 314.716 232 323C232 331.284 225.284 338 217 338H282C273.716 338 267 331.284 267 323C267 314.716 273.716 308 282 308H319V278H306C297.716 278 291 271.284 291 263C291 254.716 297.716 248 306 248H233C241.284 248 248 254.716 248 263C248 271.284 241.284 278 233 278H210Z" fill="#212121"/>
<path fill-rule="evenodd" clip-rule="evenodd" d="M198 353C198 344.716 204.716 338 213 338H314C322.284 338 329 344.716 329 353V353C329 361.284 322.284 368 314 368H213C204.716 368 198 361.284 198 353V353Z" fill="#212121"/>
<path fill-rule="evenodd" clip-rule="evenodd" d="M161 293C161 284.716 167.716 278 176 278H337C345.284 278 352 284.716 352 293V293C352 301.284 345.284 308 337 308H176C167.716 308 161 301.284 161 293V293Z" fill="#212121"/>
<path fill-rule="evenodd" clip-rule="evenodd" d="M197 233C197 224.716 203.716 218 212 218H313C321.284 218 328 224.716 328 233V233C328 241.284 321.284 248 313 248H212C203.716 248 197 241.284 197 233V233Z" fill="#212121"/>
<path fill-rule="evenodd" clip-rule="evenodd" d="M331 218V248H338C346.284 248 353 254.716 353 263C353 271.284 346.284 278 338 278H403C394.716 278 388 271.284 388 263C388 254.716 394.716 248 403 248H440V218H427C418.716 218 412 211.284 412 203C412 194.716 418.716 188 427 188H354C362.284 188 369 194.716 369 203C369 211.284 362.284 218 354 218H331Z" fill="#212121"/>
<path fill-rule="evenodd" clip-rule="evenodd" d="M299 293C299 284.716 305.716 278 314 278H415C423.284 278 430 284.716 430 293V293C430 301.284 423.284 308 415 308H314C305.716 308 299 301.284 299 293V293Z" fill="#212121"/>
<path fill-rule="evenodd" clip-rule="evenodd" d="M282 233C282 224.716 288.716 218 297 218H458C466.284 218 473 224.716 473 233V233C473 241.284 466.284 248 458 248H297C288.716 248 282 241.284 282 233V233Z" fill="#212121"/>
<path fill-rule="evenodd" clip-rule="evenodd" d="M318 173C318 164.716 324.716 158 333 158H434C442.284 158 449 164.716 449 173V173C449 181.284 442.284 188 434 188H333C324.716 188 318 181.284 318 173V173Z" fill="#212121"/>
<path fill-rule="evenodd" clip-rule="evenodd" d="M247 98V128H254C262.284 128 269 134.716 269 143C269 151.284 262.284 158 254 158H319C310.716 158 304 151.284 304 143C304 134.716 310.716 128 319 128H356V98H343C334.716 98 328 91.2843 328 83C328 74.7157 334.716 68 343 68H270C278.284 68 285 74.7157 285 83C285 91.2843 278.284 98 270 98H247Z" fill="#212121"/>
<path fill-rule="evenodd" clip-rule="evenodd" d="M235 173C235 164.716 241.716 158 250 158H351C359.284 158 366 164.716 366 173V173C366 181.284 359.284 188 351 188H250C241.716 188 235 181.284 235 173V173Z" fill="#212121"/>
<path fill-rule="evenodd" clip-rule="evenodd" d="M198 113C198 104.716 204.716 98 213 98H374C382.284 98 389 104.716 389 113V113C389 121.284 382.284 128 374 128H213C204.716 128 198 121.284 198 113V113Z" fill="#212121"/>
<path fill-rule="evenodd" clip-rule="evenodd" d="M234 53C234 44.7157 240.716 38 249 38H350C358.284 38 365 44.7157 365 53V53C365 61.2843 358.284 68 350 68H249C240.716 68 234 61.2843 234 53V53Z" fill="#212121"/>
<path fill-rule="evenodd" clip-rule="evenodd" d="M127 158V188H134C142.284 188 149 194.716 149 203C149 211.284 142.284 218 134 218H199C190.716 218 184 211.284 184 203C184 194.716 190.716 188 199 188H236V158H223C214.716 158 208 151.284 208 143C208 134.716 214.716 128 223 128H150C158.284 128 165 134.716 165 143C165 151.284 158.284 158 150 158H127Z" fill="#212121"/>
<path fill-rule="evenodd" clip-rule="evenodd" d="M115 233C115 224.716 121.716 218 130 218H231C239.284 218 246 224.716 246 233V233C246 241.284 239.284 248 231 248H130C121.716 248 115 241.284 115 233V233Z" fill="#212121"/>
<path fill-rule="evenodd" clip-rule="evenodd" d="M78 173C78 164.716 84.7157 158 93 158H254C262.284 158 269 164.716 269 173V173C269 181.284 262.284 188 254 188H93C84.7157 188 78 181.284 78 173V173Z" fill="#212121"/>
<path fill-rule="evenodd" clip-rule="evenodd" d="M114 113C114 104.716 120.716 98 129 98H230C238.284 98 245 104.716 245 113V113C245 121.284 238.284 128 230 128H129C120.716 128 114 121.284 114 113V113Z" fill="#212121"/>
<path fill-rule="evenodd" clip-rule="evenodd" d="M390 128H192C200.284 128 207 121.284 207 113C207 104.716 200.284 98 192 98H390C381.716 98 375 104.716 375 113C375 121.284 381.716 128 390 128ZM124 158C132.284 158 139 164.716 139 173C139 181.284 132.284 188 124 188H430C421.716 188 415 181.284 415 173C415 164.716 421.716 158 430 158H124ZM149 233C149 224.716 142.284 218 134 218H440C431.716 218 425 224.716 425 233C425 241.284 431.716 248 440 248H134C142.284 248 149 241.284 149 233ZM382 308H194C202.284 308 209 301.284 209 293C209 284.716 202.284 278 194 278H382C373.716 278 367 284.716 367 293C367 301.284 373.716 308 382 308Z" fill="#3D4141"/>
<path fill-rule="evenodd" clip-rule="evenodd" d="M63 83C63 74.7157 69.7157 68 78 68V68C86.2843 68 93 74.7157 93 83V83C93 91.2843 86.2843 98 78 98V98C69.7157 98 63 91.2843 63 83V83Z" fill="#3D4141"/>
<path fill-rule="evenodd" clip-rule="evenodd" d="M478 143C478 134.716 484.716 128 493 128V128C501.284 128 508 134.716 508 143V143C508 151.284 501.284 158 493 158V158C484.716 158 478 151.284 478 143V143Z" fill="#3D4141"/>
<path fill-rule="evenodd" clip-rule="evenodd" d="M20 263C20 254.716 26.7157 248 35 248H53C61.2843 248 68 254.716 68 263V263C68 271.284 61.2843 278 53 278H35C26.7157 278 20 271.284 20 263V263Z" fill="#3D4141"/>
<path fill-rule="evenodd" clip-rule="evenodd" d="M445 323C445 314.716 451.716 308 460 308H478C486.284 308 493 314.716 493 323V323C493 331.284 486.284 338 478 338H460C451.716 338 445 331.284 445 323V323Z" fill="#3D4141"/>
<path fill-rule="evenodd" clip-rule="evenodd" d="M73 323C73 314.716 79.7157 308 88 308H420C428.284 308 435 314.716 435 323V323C435 331.284 428.284 338 420 338H88C79.7157 338 73 331.284 73 323V323Z" fill="#3D4141"/>
<path fill-rule="evenodd" clip-rule="evenodd" d="M160 383C160 374.716 166.716 368 175 368H389C397.284 368 404 374.716 404 383V383C404 391.284 397.284 398 389 398H175C166.716 398 160 391.284 160 383V383Z" fill="#3D4141"/>
<path fill-rule="evenodd" clip-rule="evenodd" d="M78 263C78 254.716 84.7157 248 93 248H485C493.284 248 500 254.716 500 263V263C500 271.284 493.284 278 485 278H93C84.7157 278 78 271.284 78 263V263Z" fill="#3D4141"/>
<path fill-rule="evenodd" clip-rule="evenodd" d="M0 203C0 194.716 6.71573 188 15 188H515C523.284 188 530 194.716 530 203V203C530 211.284 523.284 218 515 218H15C6.71573 218 0 211.284 0 203V203Z" fill="#3D4141"/>
<path fill-rule="evenodd" clip-rule="evenodd" d="M103 83C103 74.7157 109.716 68 118 68H430C438.284 68 445 74.7157 445 83V83C445 91.2843 438.284 98 430 98H118C109.716 98 103 91.2843 103 83V83Z" fill="#3D4141"/>
<path fill-rule="evenodd" clip-rule="evenodd" d="M200 23C200 14.7157 206.716 8 215 8H373C381.284 8 388 14.7157 388 23V23C388 31.2843 381.284 38 373 38H215C206.716 38 200 31.2843 200 23V23Z" fill="#3D4141"/>
<path fill-rule="evenodd" clip-rule="evenodd" d="M42 143C42 134.716 48.7157 128 57 128H453C461.284 128 468 134.716 468 143V143C468 151.284 461.284 158 453 158H57C48.7157 158 42 151.284 42 143V143Z" fill="#3D4141"/>
<path fill-rule="evenodd" clip-rule="evenodd" d="M318.995 314.679V314.679C318.83 309.863 314.866 306 310 306C305.028 306 301 310.025 301 314.99V314.99V317.583V320.176V352.001C301 356.971 296.972 361 292 361C287.029 361 283 356.97 283 352.001V322.738C280.356 322.912 277.688 323 275 323C265.359 323 255.983 321.863 247 319.716V333.009C247 337.974 242.972 342 238 342C233.029 342 229 337.975 229 333.009V314.991C229 314.62 229.023 314.254 229.066 313.895V313.895C229.044 313.886 229.022 313.876 229 313.867V296C229 291.028 224.971 287 220 287C215.028 287 211 291.029 211 296V296V300.264V304.527V306.009C211 310.975 206.972 315 202 315C197.029 315 193 310.968 193 306.009V290.613C169.614 268.717 155 237.565 155 203C155 140.093 203.405 88.4923 265 83.4108V77.0081C265 76.9487 265.001 76.8894 265.002 76.8302V76.8302C264.876 71.5949 264.623 65.7418 264.141 60.2266C262.799 44.8847 252.231 38.8321 255.484 30.1165C258.736 21.4009 269.415 23.427 273.415 28.5477C277.415 33.6684 280.632 42.1976 282.077 58.7093C282.869 67.7591 283.063 76.8758 283.077 83.2676C345.585 87.422 395 139.44 395 203C395 246.586 371.762 284.745 337 305.763V332.002C337 336.971 332.972 341 328 341C323.029 341 319 336.963 319 332.002V314.677L318.995 314.679Z" fill="#FD833B"/>
<mask id="mask1_4_7" style="mask-type:alpha" maskUnits="userSpaceOnUse" x="155" y="24" width="240" height="337">
<path fill-rule="evenodd" clip-rule="evenodd" d="M318.995 314.679V314.679C318.83 309.863 314.866 306 310 306C305.028 306 301 310.025 301 314.99V314.99V317.583V320.176V352.001C301 356.971 296.972 361 292 361C287.029 361 283 356.97 283 352.001V322.738C280.356 322.912 277.688 323 275 323C265.359 323 255.983 321.863 247 319.716V333.009C247 337.974 242.972 342 238 342C233.029 342 229 337.975 229 333.009V314.991C229 314.62 229.023 314.254 229.066 313.895V313.895C229.044 313.886 229.022 313.876 229 313.867V296C229 291.028 224.971 287 220 287C215.028 287 211 291.029 211 296V296V300.264V304.527V306.009C211 310.975 206.972 315 202 315C197.029 315 193 310.968 193 306.009V290.613C169.614 268.717 155 237.565 155 203C155 140.093 203.405 88.4923 265 83.4108V77.0081C265 76.9487 265.001 76.8894 265.002 76.8302V76.8302C264.876 71.5949 264.623 65.7418 264.141 60.2266C262.799 44.8847 252.231 38.8321 255.484 30.1165C258.736 21.4009 269.415 23.427 273.415 28.5477C277.415 33.6684 280.632 42.1976 282.077 58.7093C282.869 67.7591 283.063 76.8758 283.077 83.2676C345.585 87.422 395 139.44 395 203C395 246.586 371.762 284.745 337 305.763V332.002C337 336.971 332.972 341 328 341C323.029 341 319 336.963 319 332.002V314.677L318.995 314.679Z" fill="white"/>
</mask>
<g mask="url(#mask1_4_7)">
<path fill-rule="evenodd" clip-rule="evenodd" d="M265 -31H283V450H265V-31Z" fill="#FF8B3B"/>
<path fill-rule="evenodd" clip-rule="evenodd" d="M229 -31H247V450H229V-31Z" fill="#FF8B3B"/>
<path fill-rule="evenodd" clip-rule="evenodd" d="M193 -31H211V450H193V-31Z" fill="#FF8B3B"/>
<path fill-rule="evenodd" clip-rule="evenodd" d="M157 -31H175V450H157V-31Z" fill="#FF8B3B"/>
<path fill-rule="evenodd" clip-rule="evenodd" d="M373 -31H391V450H373V-31Z" fill="#FF8B3B"/>
<path fill-rule="evenodd" clip-rule="evenodd" d="M337 -31H355V450H337V-31Z" fill="#FF8B3B"/>
<path fill-rule="evenodd" clip-rule="evenodd" d="M301 -31H319V450H301V-31Z" fill="#FF8B3B"/>
</g>
<path fill-rule="evenodd" clip-rule="evenodd" d="M268.02 177.273C271.021 171.581 279.172 171.581 282.173 177.273L293 197.807V218.561C292.319 218.75 291.594 218.852 290.834 218.852H274.999C274.92 213.95 270.921 210 266 210C261.194 210 257.268 213.767 257.013 218.509C252.401 217.115 249.858 211.717 252.282 207.12L268.02 177.273Z" fill="#543425"/>
<path fill-rule="evenodd" clip-rule="evenodd" d="M275 216C275 211.029 279.029 207 284 207V207C288.971 207 293 211.029 293 216V219C293 223.971 288.971 228 284 228V228C279.029 228 275 223.971 275 219V216Z" fill="#543425"/>
<path fill-rule="evenodd" clip-rule="evenodd" d="M300.964 274.198C334.936 263.979 360.449 234.226 364.452 197.992V197.992C342.479 222.546 310.544 238 275 238C239.456 238 207.521 222.546 185.548 197.992C190.519 242.995 228.672 278 275 278C277.696 278 280.364 277.881 283 277.649V275.005C283 270.032 287.028 266 292 266C296.699 266 300.556 269.602 300.964 274.198V274.198Z" fill="#543425"/>
<mask id="mask2_4_7" style="mask-type:alpha" maskUnits="userSpaceOnUse" x="185" y="197" width="180" height="81">
<path fill-rule="evenodd" clip-rule="evenodd" d="M300.964 274.198C334.936 263.979 360.449 234.226 364.452 197.992V197.992C342.479 222.546 310.544 238 275 238C239.456 238 207.521 222.546 185.548 197.992C190.519 242.995 228.672 278 275 278C277.696 278 280.364 277.881 283 277.649V275.005C283 270.032 287.028 266 292 266C296.699 266 300.556 269.602 300.964 274.198V274.198Z" fill="white"/>
</mask>
<g mask="url(#mask2_4_7)">
<path fill-rule="evenodd" clip-rule="evenodd" d="M313 215C313 210.029 317.029 206 322 206V206C326.971 206 331 210.029 331 215V235C331 239.971 326.971 244 322 244V244C317.029 244 313 239.971 313 235V215Z" fill="#895D43"/>
<path fill-rule="evenodd" clip-rule="evenodd" d="M223 215C223 210.029 227.029 206 232 206V206C236.971 206 241 210.029 241 215V235C241 239.971 236.971 244 232 244V244C227.029 244 223 239.971 223 235V215Z" fill="#895D43"/>
<path fill-rule="evenodd" clip-rule="evenodd" d="M253 225C253 220.029 257.029 216 262 216V216C266.971 216 271 220.029 271 225V245C271 249.971 266.971 254 262 254V254C257.029 254 253 249.971 253 245V225Z" fill="#895D43"/>
<path fill-rule="evenodd" clip-rule="evenodd" d="M283 225C283 220.029 287.029 216 292 216V216C296.971 216 301 220.029 301 225V245C301 249.971 296.971 254 292 254V254C287.029 254 283 249.971 283 245V225Z" fill="#895D43"/>
</g>
<path fill-rule="evenodd" clip-rule="evenodd" d="M210.964 149.816C204.353 148.499 199.176 155.446 202.329 161.404L220.822 196.354C223.764 201.914 231.676 202.06 234.821 196.612L251.008 168.575C253.747 163.831 251.016 157.8 245.644 156.73L210.964 149.816Z" fill="#543425"/>
<mask id="mask3_4_7" style="mask-type:alpha" maskUnits="userSpaceOnUse" x="201" y="149" width="52" height="52">
<path fill-rule="evenodd" clip-rule="evenodd" d="M210.964 149.816C204.353 148.499 199.176 155.446 202.329 161.404L220.822 196.354C223.764 201.914 231.676 202.06 234.821 196.612L251.008 168.575C253.747 163.831 251.016 157.8 245.644 156.73L210.964 149.816Z" fill="white"/>
</mask>
<g mask="url(#mask3_4_7)">
<path fill-rule="evenodd" clip-rule="evenodd" d="M240 202C251.046 202 260 193.046 260 182C260 170.954 251.046 162 240 162C228.954 162 220 170.954 220 182C220 193.046 228.954 202 240 202Z" fill="#3B2D26"/>
<path fill-rule="evenodd" clip-rule="evenodd" d="M240 192C245.523 192 250 187.523 250 182C250 176.477 245.523 172 240 172C234.477 172 230 176.477 230 182C230 187.523 234.477 192 240 192Z" fill="#FFC355"/>
</g>
<path fill-rule="evenodd" clip-rule="evenodd" d="M340.172 149.816C346.782 148.499 351.96 155.446 348.807 161.404L330.314 196.354C327.372 201.914 319.46 202.06 316.315 196.612L300.128 168.575C297.389 163.831 300.12 157.8 305.492 156.73L340.172 149.816Z" fill="#543425"/>
<mask id="mask4_4_7" style="mask-type:alpha" maskUnits="userSpaceOnUse" x="299" y="149" width="51" height="52">
<path fill-rule="evenodd" clip-rule="evenodd" d="M340.172 149.816C346.782 148.499 351.96 155.446 348.807 161.404L330.314 196.354C327.372 201.914 319.46 202.06 316.315 196.612L300.128 168.575C297.389 163.831 300.12 157.8 305.492 156.73L340.172 149.816Z" fill="white"/>
</mask>
<g mask="url(#mask4_4_7)">
<path fill-rule="evenodd" clip-rule="evenodd" d="M311 202C322.046 202 331 193.046 331 182C331 170.954 322.046 162 311 162C299.954 162 291 170.954 291 182C291 193.046 299.954 202 311 202Z" fill="#3B2D26"/>
<path fill-rule="evenodd" clip-rule="evenodd" d="M311 192C316.523 192 321 187.523 321 182C321 176.477 316.523 172 311 172C305.477 172 301 176.477 301 182C301 187.523 305.477 192 311 192Z" fill="#FFC355"/>
</g>
</svg>
